<?xml version="1.0" standalone="no"?>
<!DOCTYPE svg PUBLIC "-//W3C//DTD SVG 20010904//EN"
 "http://www.w3.org/TR/2001/REC-SVG-20010904/DTD/svg10.dtd">
<svg version="1.0" xmlns="http://www.w3.org/2000/svg"
 width="1024.000000pt" height="1024.000000pt" viewBox="0 0 1024.000000 1024.000000"
 preserveAspectRatio="xMidYMid meet">

<g transform="translate(0.000000,1024.000000) scale(0.100000,-0.100000)"
fill="#000000" stroke="none">
<path d="M2810 8515 c-97 -17 -149 -36 -233 -86 -128 -76 -247 -215 -299 -349
-56 -144 -53 50 -53 -2960 0 -2672 1 -2788 18 -2850 57 -201 206 -378 392
-466 158 -75 -64 -69 2475 -69 2152 0 2279 1 2340 18 230 63 421 228 506 437
58 143 55 -6 52 2635 l-3 2420 -29 84 c-53 150 -87 191 -539 640 -229 228
-443 432 -474 453 -70 46 -144 75 -241 94 -105 20 -3796 19 -3912 -1z m3768
-1065 c64 -192 213 -333 407 -385 137 -36 344 -29 563 21 59 13 110 24 115 24
4 0 6 -1063 5 -2362 l-3 -2363 -32 -67 c-44 -93 -100 -151 -191 -196 l-76 -37
-2250 0 -2251 0 -72 34 c-85 39 -162 115 -195 188 -18 40 -23 76 -29 223 -12
301 -11 5266 2 5335 24 128 100 229 217 283 l57 27 1850 5 1850 5 6 -335 c5
-308 7 -340 27 -400z m602 279 c151 -155 276 -285 278 -289 8 -22 -237 -65
-329 -57 -113 10 -194 69 -218 161 -11 44 -22 466 -12 466 4 0 130 -126 281
-281z"/>
<path d="M4329 7321 c-24 -16 -188 -173 -364 -350 l-319 -320 -141 139 c-84
82 -153 142 -169 146 -43 11 -125 -1 -154 -23 -65 -48 -91 -120 -72 -194 10
-38 40 -72 213 -247 111 -112 213 -209 227 -216 41 -22 97 -28 142 -16 38 10
93 61 461 428 330 330 421 426 433 459 58 151 -118 284 -257 194z"/>
<path d="M4977 6869 c-21 -3 -50 -15 -65 -26 -36 -25 -72 -98 -72 -143 0 -41
29 -108 56 -132 56 -49 24 -48 1074 -48 957 0 982 0 1020 20 50 25 81 71 88
125 10 89 -21 154 -92 193 -29 16 -104 17 -1001 17 -533 1 -987 -2 -1008 -6z"/>
<path d="M4345 5794 c-16 -8 -181 -166 -365 -350 l-336 -335 -139 140 c-117
116 -147 141 -183 151 -81 21 -164 -17 -201 -92 -25 -53 -26 -100 -3 -150 24
-53 396 -426 447 -449 51 -24 109 -24 160 0 27 13 176 155 447 427 363 365
408 414 418 453 6 24 9 59 6 76 -20 107 -157 178 -251 129z"/>
<path d="M4960 5328 c-45 -12 -96 -62 -111 -106 -17 -53 -6 -118 28 -160 61
-76 -17 -71 1083 -71 940 -1 987 0 1026 18 23 10 51 33 64 51 24 34 37 110 26
154 -9 37 -56 87 -101 107 -38 18 -89 19 -1010 18 -605 -1 -983 -5 -1005 -11z"/>
<path d="M4345 4264 c-16 -8 -179 -164 -361 -346 -287 -286 -334 -329 -350
-320 -11 6 -72 65 -137 132 -148 153 -197 175 -292 131 -48 -22 -69 -44 -90
-94 -20 -48 -19 -93 4 -142 23 -49 413 -439 454 -454 53 -20 119 -13 168 17
24 16 223 210 441 431 426 431 428 433 412 516 -20 108 -154 178 -249 129z"/>
<path d="M4945 3796 c-129 -56 -138 -253 -14 -316 37 -20 63 -20 1032 -20
l993 0 45 29 c106 67 107 219 2 291 l-37 25 -995 2 c-808 2 -1002 0 -1026 -11z"/>
</g>
</svg>
